<svg xmlns="http://www.w3.org/2000/svg" xmlns:xlink="http://www.w3.org/1999/xlink" width="230.092" height="29.58" viewBox="0 0 230.092 29.58"><path fill="#231F20" d="M15.253 17.087h3.79l3.724 3.519-7.514 7.515V17.087zm4.654-.467l3.429-3.401 3.412 3.414-3.318 3.317-3.523-3.33zM8.968 22.762v-9.577l4.755 14.332-4.755-4.755zm-6.133-6.134l5.201-5.201V21.83l-5.201-5.202zm6.201-6.201l5.285-5.285v21.215l-5.285-15.93zm6.217-5.291l7.424 7.424-3.624 3.594h-3.8V5.136zM.989 14.791L14.789.989l13.802 13.802-1.183 1.181L15.12 3.684h-.66L2.171 15.973.989 14.791zM14.46 0L0 14.46v.66l14.46 14.46h.66l14.46-14.46v-.66L15.12 0h-.66zm62.858 20.521h1.368l1.062-2.343h4.23l1.02 2.343h1.37l-4.418-9.848-4.632 9.848zm2.927-3.512l1.654-3.614 1.591 3.614h-3.245zM75.35 11.08h-7.995v1.17h3.358v8.271h1.28V12.25h3.357zm-19.024 9.441h1.368l1.062-2.343h4.23l1.02 2.343h1.37l-4.418-9.848-4.632 9.848zm2.927-3.512l1.653-3.614 1.591 3.614h-3.244zm-6.502-5.929H51.47v6.827l-6.976-7.306v9.92h1.28v-6.883l6.977 7.306zm52.452 0l-3.452 4.814-3.452-4.814H96.9l4.211 5.921v3.52h1.28v-3.52l.02-.027 4.191-5.894zm-15.262 0v9.441h6.394v-1.169h-5.114V11.08z"/><defs><path id="a" d="M0 0h230.092v29.58H0z"/></defs><clipPath id="b"><use xlink:href="#a" overflow="visible"/></clipPath><path clip-path="url(#b)" fill="#231F20" d="M135.652 10.869c-2.803 0-4.914 2.118-4.914 4.928 0 2.793 2.111 4.9 4.914 4.9 2.801 0 4.913-2.107 4.913-4.9 0-2.81-2.112-4.928-4.913-4.928m0 8.658c-2.107 0-3.579-1.534-3.579-3.73 0-2.213 1.472-3.758 3.579-3.758 2.106 0 3.578 1.545 3.578 3.758 0 2.196-1.471 3.73-3.578 3.73m67.994-8.658c-2.803 0-4.915 2.118-4.915 4.928 0 2.793 2.112 4.9 4.915 4.9 2.801 0 4.913-2.107 4.913-4.9 0-2.81-2.113-4.928-4.913-4.928m0 8.658c-2.107 0-3.579-1.534-3.579-3.73 0-2.213 1.472-3.758 3.579-3.758 2.106 0 3.578 1.545 3.578 3.758 0 2.196-1.472 3.73-3.578 3.73m-59.468-8.465v9.442h7.546v-1.17h-6.266v-8.272zm71.135 6.904l-2.758-6.904h-1.372l4.13 9.883 4.131-9.883h-1.372zm-38.685 2.538h1.368l1.062-2.343h4.229l1.021 2.343h1.369l-4.418-9.848-4.631 9.848zm2.928-3.513l1.653-3.614 1.591 3.614h-3.244zm-17.595.917c0-1.667-1.04-2.568-3.273-2.838l-.952-.116c-1.017-.135-2.056-.406-2.056-1.392 0-1.182 1.317-1.611 2.203-1.611h.13c.919 0 2.025.442 2.759 1.099l.792-.736c-.937-.949-2.264-1.516-3.551-1.516h-.13c-2.035.014-3.457 1.168-3.457 2.807 0 1.429 1.027 2.244 3.143 2.491l.953.116c1.018.13 2.185.44 2.185 1.696 0 1.024-.971 1.725-2.417 1.741h-.074c-2.04 0-2.966-1.146-3.21-1.517l-.781.726c.783 1.217 2.273 1.943 3.991 1.943h.07c2.163-.014 3.675-1.203 3.675-2.893m-35.025 1.945c.86-.71.928-1.796.928-2.112 0-.84-.423-1.866-1.609-2.23l-.192-.059.16-.123c.729-.565.813-1.231.813-1.682 0-.911-.351-1.615-1.044-2.093-.264-.184-1.27-.492-5.042-.492h-1.653v9.443h5.211c.649 0 1.633 0 2.428-.652m-6.359-7.622h3.612c1.045 0 1.62.517 1.62 1.456 0 .695-.29 1.524-1.677 1.524h-3.556v-2.98zm0 3.986h4.025c1.787 0 1.979 1.085 1.979 1.552 0 .471-.195 1.566-2.007 1.566h-3.998v-3.118zm52.477 4.287v-9.442h-1.282v3.778h-5.467v-3.778h-1.281v9.442h1.281V16.01h5.467v4.494zm17.477-5.155v-4.287h-1.281v9.442h1.281v-4.537l4.752 4.537h1.686l-5.179-4.896 4.582-4.546h-1.636zm37.171 2.811l1.021 2.344h1.37l-4.419-9.849-4.631 9.849h1.367l1.062-2.344h4.23zm-2.08-4.783l1.593 3.614h-3.245l1.652-3.614z"/></svg>