<svg xmlns="http://www.w3.org/2000/svg" width="96.378" height="96.378" viewBox="0 0 96.378 96.378"><path fill="#FFF" d="M6 6h16.346v16.347H6V6zM0 28.346h28.346V0H0v28.346zM40.016 6h16.347v16.347H40.016V6zm-6 22.346h28.346V0H34.016v28.346zM74.031 6h16.347v16.347H74.031V6zm-5.999 22.346h28.346V0H68.032v28.346zM6 40.015h16.346v16.347H6V40.015zM0 62.362h28.346V34.016H0v28.346zm56.362-6H40.016V40.016h16.346v16.346zm6-22.346H34.016v28.346h28.346V34.016zm11.669 5.999h16.347v16.347H74.031V40.015zm-5.999 22.347h28.346V34.016H68.032v28.346zM6 74.032h16.346v16.346H6V74.032zM0 96.378h28.346V68.032H0v28.346zm40.016-22.346h16.347v16.346H40.016V74.032zm-6 22.346h28.346V68.032H34.016v28.346zm40.015-22.346h16.347v16.346H74.031V74.032zm-5.999 22.346h28.346V68.032H68.032v28.346z"/></svg>