<?xml version="1.0" encoding="utf-8"?>
<!-- Generator: Adobe Illustrator 16.0.0, SVG Export Plug-In . SVG Version: 6.00 Build 0)  -->
<!DOCTYPE svg PUBLIC "-//W3C//DTD SVG 1.1//EN" "http://www.w3.org/Graphics/SVG/1.1/DTD/svg11.dtd">
<svg version="1.1" id="Layer_1" xmlns="http://www.w3.org/2000/svg" xmlns:xlink="http://www.w3.org/1999/xlink" x="0px" y="0px"
	 width="336.189px" height="62.247px" viewBox="0 0 336.189 62.247" enable-background="new 0 0 336.189 62.247"
	 xml:space="preserve">
<path fill="#231F20" d="M32.099,35.955h7.974l7.838,7.407L32.099,59.173V35.955z M41.892,34.974l7.216-7.156L56.288,35l-6.981,6.981
	L41.892,34.974z M18.873,47.898V27.744l10.006,30.16L18.873,47.898z M5.965,34.991l10.946-10.945v21.89L5.965,34.991z
	 M19.015,21.942L30.137,10.82v44.643L19.015,21.942z M32.099,10.809L47.721,26.43l-7.627,7.563h-7.995V10.809z M2.081,31.124
	L31.123,2.082l29.042,29.042l-2.488,2.487L31.817,7.752H30.43L4.569,33.611L2.081,31.124z M30.43,0L0,30.43v1.387l30.43,30.43h1.387
	l30.43-30.43V30.43L31.817,0H30.43z"/>
<path fill="#231F20" d="M127.868,37.941h1.865l1.448-3.196h5.768l1.392,3.196h1.868l-6.025-13.429L127.868,37.941z M131.859,33.15
	l2.255-4.927l2.17,4.927H131.859z"/>
<polygon fill="#231F20" points="125.184,25.065 114.281,25.065 114.281,26.66 118.86,26.66 118.86,37.94 120.606,37.94 
	120.606,26.66 125.184,26.66 "/>
<path fill="#231F20" d="M99.243,37.941h1.865l1.448-3.196h5.768l1.391,3.196h1.868l-6.025-13.429L99.243,37.941z M103.234,33.15
	l2.254-4.927l2.17,4.927H103.234z"/>
<polygon fill="#231F20" points="94.368,25.065 92.621,25.065 92.621,34.376 83.108,24.412 83.108,37.94 84.855,37.94 84.855,28.553 
	94.368,38.517 "/>
<polygon fill="#231F20" points="165.891,25.065 161.184,31.63 156.477,25.065 154.57,25.065 160.312,33.139 160.312,37.94 
	162.057,37.94 162.057,33.139 162.083,33.102 167.799,25.065 "/>
<polygon fill="#231F20" points="145.08,25.065 145.08,37.94 153.798,37.94 153.798,36.345 146.825,36.345 146.825,25.065 "/>
<g>
	<defs>
		<rect id="SVGID_1_" y="0" width="336.189" height="62.247"/>
	</defs>
	<clipPath id="SVGID_2_">
		<use xlink:href="#SVGID_1_"  overflow="visible"/>
	</clipPath>
	<path clip-path="url(#SVGID_2_)" fill="#231F20" d="M207.41,24.778c-3.819,0-6.7,2.888-6.7,6.72c0,3.81,2.881,6.682,6.7,6.682
		c3.82,0,6.701-2.872,6.701-6.682C214.111,27.666,211.23,24.778,207.41,24.778 M207.41,36.583c-2.873,0-4.88-2.092-4.88-5.086
		c0-3.017,2.007-5.125,4.88-5.125s4.881,2.108,4.881,5.125C212.291,34.492,210.283,36.583,207.41,36.583"/>
	<path clip-path="url(#SVGID_2_)" fill="#231F20" d="M300.125,24.778c-3.82,0-6.701,2.888-6.701,6.72
		c0,3.81,2.881,6.682,6.701,6.682s6.7-2.872,6.7-6.682C306.825,27.666,303.945,24.778,300.125,24.778 M300.125,36.583
		c-2.872,0-4.88-2.092-4.88-5.086c0-3.017,2.008-5.125,4.88-5.125c2.873,0,4.881,2.108,4.881,5.125
		C305.006,34.492,302.998,36.583,300.125,36.583"/>
	<polygon clip-path="url(#SVGID_2_)" fill="#231F20" points="219.036,25.041 219.036,37.916 229.325,37.916 229.325,36.321 
		220.781,36.321 220.781,25.041 	"/>
	<polygon clip-path="url(#SVGID_2_)" fill="#231F20" points="316.036,34.456 312.274,25.041 310.403,25.041 316.036,38.518 
		321.669,25.041 319.799,25.041 	"/>
	<path clip-path="url(#SVGID_2_)" fill="#231F20" d="M263.286,37.917h1.865l1.447-3.196h5.768l1.392,3.196h1.868l-6.025-13.429
		L263.286,37.917z M267.278,33.125l2.254-4.927l2.17,4.927H267.278z"/>
	<path clip-path="url(#SVGID_2_)" fill="#231F20" d="M243.285,34.376c0-2.273-1.418-3.502-4.465-3.869l-1.298-0.159
		c-1.386-0.184-2.802-0.554-2.802-1.898c0-1.611,1.796-2.197,3.004-2.197h0.177c1.254,0,2.763,0.602,3.762,1.498l1.081-1.003
		c-1.278-1.294-3.088-2.067-4.843-2.067h-0.178c-2.774,0.019-4.714,1.593-4.714,3.828c0,1.948,1.402,3.06,4.286,3.396l1.3,0.158
		c1.387,0.178,2.979,0.6,2.979,2.312c0,1.397-1.324,2.352-3.295,2.374h-0.104c-2.782,0-4.043-1.563-4.377-2.067l-1.065,0.988
		c1.068,1.66,3.102,2.651,5.442,2.651h0.097C241.224,38.302,243.285,36.68,243.285,34.376"/>
	<path clip-path="url(#SVGID_2_)" fill="#231F20" d="M195.525,37.028c1.174-0.968,1.265-2.449,1.265-2.88
		c0-1.146-0.577-2.544-2.194-3.041l-0.263-0.081l0.218-0.168c0.995-0.77,1.11-1.678,1.11-2.294c0-1.241-0.479-2.201-1.423-2.853
		c-0.361-0.251-1.732-0.671-6.876-0.671h-2.254v12.875h7.105C193.102,37.916,194.441,37.916,195.525,37.028 M186.855,26.637h4.925
		c1.425,0,2.21,0.704,2.21,1.984c0,0.949-0.397,2.079-2.285,2.079h-4.85V26.637z M186.855,32.07h5.488
		c2.437,0,2.699,1.479,2.699,2.117c0,0.641-0.267,2.134-2.737,2.134h-5.45V32.07z"/>
	<polygon clip-path="url(#SVGID_2_)" fill="#231F20" points="258.411,37.917 258.411,25.041 256.664,25.041 256.664,30.192 
		249.208,30.192 249.208,25.041 247.462,25.041 247.462,37.917 249.208,37.917 249.208,31.788 256.664,31.788 256.664,37.917 	"/>
	<polygon clip-path="url(#SVGID_2_)" fill="#231F20" points="282.243,30.887 282.243,25.042 280.496,25.042 280.496,37.917 
		282.243,37.917 282.243,31.729 288.723,37.917 291.022,37.917 283.96,31.242 290.208,25.042 287.978,25.042 	"/>
	<path clip-path="url(#SVGID_2_)" fill="#231F20" d="M332.93,34.721l1.391,3.195h1.868l-6.025-13.429l-6.314,13.429h1.865
		l1.447-3.195H332.93z M330.094,28.198l2.171,4.927h-4.424L330.094,28.198z"/>
</g>
</svg>
