<?xml version="1.0" encoding="utf-8"?>
<!-- Generator: Adobe Illustrator 16.0.0, SVG Export Plug-In . SVG Version: 6.00 Build 0)  -->
<!DOCTYPE svg PUBLIC "-//W3C//DTD SVG 1.1//EN" "http://www.w3.org/Graphics/SVG/1.1/DTD/svg11.dtd">
<svg version="1.1" id="Layer_1" xmlns="http://www.w3.org/2000/svg" xmlns:xlink="http://www.w3.org/1999/xlink" x="0px" y="0px"
	 width="96.378px" height="96.378px" viewBox="0 0 96.378 96.378" enable-background="new 0 0 96.378 96.378" xml:space="preserve">
<path fill="#FFFFFF" d="M6,6h16.346v16.347H6V6z M0,28.346h28.346V0H0V28.346z"/>
<path fill="#FFFFFF" d="M40.016,6h16.347v16.347H40.016V6z M34.016,28.346h28.346V0H34.016V28.346z"/>
<path fill="#FFFFFF" d="M74.031,6h16.347v16.347H74.031V6z M68.032,28.346h28.346V0H68.032V28.346z"/>
<path fill="#FFFFFF" d="M6,40.015h16.346v16.347H6V40.015z M0,62.362h28.346V34.016H0V62.362z"/>
<path fill="#FFFFFF" d="M56.362,56.362H40.016V40.016h16.346V56.362z M62.362,34.016H34.016v28.346h28.346V34.016z"/>
<path fill="#FFFFFF" d="M74.031,40.015h16.347v16.347H74.031V40.015z M68.032,62.362h28.346V34.016H68.032V62.362z"/>
<path fill="#FFFFFF" d="M6,74.032h16.346v16.346H6V74.032z M0,96.378h28.346V68.032H0V96.378z"/>
<path fill="#FFFFFF" d="M40.016,74.032h16.347v16.346H40.016V74.032z M34.016,96.378h28.346V68.032H34.016V96.378z"/>
<path fill="#FFFFFF" d="M74.031,74.032h16.347v16.346H74.031V74.032z M68.032,96.378h28.346V68.032H68.032V96.378z"/>
</svg>
