<?xml version="1.0" encoding="utf-8"?>
<!-- Generator: Adobe Illustrator 16.0.0, SVG Export Plug-In . SVG Version: 6.00 Build 0)  -->
<!DOCTYPE svg PUBLIC "-//W3C//DTD SVG 1.1//EN" "http://www.w3.org/Graphics/SVG/1.1/DTD/svg11.dtd">
<svg version="1.1" id="Layer_1" xmlns="http://www.w3.org/2000/svg" xmlns:xlink="http://www.w3.org/1999/xlink" x="0px" y="0px"
	 width="230.092px" height="29.58px" viewBox="0 0 230.092 29.58" enable-background="new 0 0 230.092 29.58" xml:space="preserve">
<path fill="#231F20" d="M15.253,17.087h3.79l3.724,3.519l-7.514,7.515V17.087z M19.907,16.62l3.429-3.401l3.412,3.414L23.43,19.95
	L19.907,16.62z M8.968,22.762v-9.577l4.755,14.332L8.968,22.762z M2.835,16.628l5.201-5.201V21.83L2.835,16.628z M9.036,10.427
	l5.285-5.285v21.215L9.036,10.427z M15.253,5.136l7.424,7.424l-3.624,3.594h-3.8V5.136z M0.989,14.791l13.8-13.802l13.802,13.802
	l-1.183,1.181L15.12,3.684h-0.66L2.171,15.973L0.989,14.791z M14.46,0L0,14.46v0.66l14.46,14.46h0.66l14.46-14.46v-0.66L15.12,0
	H14.46z"/>
<path fill="#231F20" d="M77.318,20.521h1.368l1.062-2.343h4.23l1.02,2.343h1.37l-4.418-9.848L77.318,20.521z M80.245,17.009
	l1.654-3.614l1.591,3.614H80.245z"/>
<polygon fill="#231F20" points="75.35,11.08 67.355,11.08 67.355,12.25 70.713,12.25 70.713,20.521 71.993,20.521 71.993,12.25 
	75.35,12.25 "/>
<path fill="#231F20" d="M56.326,20.521h1.368l1.062-2.343h4.23l1.02,2.343h1.37l-4.418-9.848L56.326,20.521z M59.253,17.009
	l1.653-3.614l1.591,3.614H59.253z"/>
<polygon fill="#231F20" points="52.751,11.08 51.47,11.08 51.47,17.907 44.494,10.601 44.494,20.521 45.774,20.521 45.774,13.638 
	52.751,20.944 "/>
<polygon fill="#231F20" points="105.203,11.08 101.751,15.894 98.299,11.08 96.9,11.08 101.111,17.001 101.111,20.521 
	102.391,20.521 102.391,17.001 102.411,16.974 106.602,11.08 "/>
<polygon fill="#231F20" points="89.941,11.08 89.941,20.521 96.335,20.521 96.335,19.352 91.221,19.352 91.221,11.08 "/>
<g>
	<defs>
		<rect id="SVGID_1_" width="230.092" height="29.58"/>
	</defs>
	<clipPath id="SVGID_2_">
		<use xlink:href="#SVGID_1_"  overflow="visible"/>
	</clipPath>
	<path clip-path="url(#SVGID_2_)" fill="#231F20" d="M135.652,10.869c-2.803,0-4.914,2.118-4.914,4.928c0,2.793,2.111,4.9,4.914,4.9
		c2.801,0,4.913-2.107,4.913-4.9C140.565,12.987,138.453,10.869,135.652,10.869 M135.652,19.527c-2.107,0-3.579-1.534-3.579-3.73
		c0-2.213,1.472-3.758,3.579-3.758c2.106,0,3.578,1.545,3.578,3.758C139.23,17.993,137.759,19.527,135.652,19.527"/>
	<path clip-path="url(#SVGID_2_)" fill="#231F20" d="M203.646,10.869c-2.803,0-4.915,2.118-4.915,4.928c0,2.793,2.112,4.9,4.915,4.9
		c2.801,0,4.913-2.107,4.913-4.9C208.559,12.987,206.446,10.869,203.646,10.869 M203.646,19.527c-2.107,0-3.579-1.534-3.579-3.73
		c0-2.213,1.472-3.758,3.579-3.758c2.106,0,3.578,1.545,3.578,3.758C207.224,17.993,205.752,19.527,203.646,19.527"/>
	<polygon clip-path="url(#SVGID_2_)" fill="#231F20" points="144.178,11.062 144.178,20.504 151.724,20.504 151.724,19.334 
		145.458,19.334 145.458,11.062 	"/>
	<polygon clip-path="url(#SVGID_2_)" fill="#231F20" points="215.313,17.966 212.555,11.062 211.183,11.062 215.313,20.945 
		219.444,11.062 218.072,11.062 	"/>
	<path clip-path="url(#SVGID_2_)" fill="#231F20" d="M176.628,20.504h1.368l1.062-2.343h4.229l1.021,2.343h1.369l-4.418-9.848
		L176.628,20.504z M179.556,16.991l1.653-3.614l1.591,3.614H179.556z"/>
	<path clip-path="url(#SVGID_2_)" fill="#231F20" d="M161.961,17.908c0-1.667-1.04-2.568-3.273-2.838l-0.952-0.116
		c-1.017-0.135-2.056-0.406-2.056-1.392c0-1.182,1.317-1.611,2.203-1.611h0.13c0.919,0,2.025,0.442,2.759,1.099l0.792-0.736
		c-0.937-0.949-2.264-1.516-3.551-1.516h-0.13c-2.035,0.014-3.457,1.168-3.457,2.807c0,1.429,1.027,2.244,3.143,2.491l0.953,0.116
		c1.018,0.13,2.185,0.44,2.185,1.696c0,1.024-0.971,1.725-2.417,1.741h-0.074c-2.04,0-2.966-1.146-3.21-1.517l-0.781,0.726
		c0.783,1.217,2.273,1.943,3.991,1.943h0.07C160.449,20.787,161.961,19.598,161.961,17.908"/>
	<path clip-path="url(#SVGID_2_)" fill="#231F20" d="M126.936,19.853c0.86-0.71,0.928-1.796,0.928-2.112
		c0-0.84-0.423-1.866-1.609-2.23l-0.192-0.059l0.16-0.123c0.729-0.565,0.813-1.231,0.813-1.682c0-0.911-0.351-1.615-1.044-2.093
		c-0.264-0.184-1.27-0.492-5.042-0.492h-1.653v9.443h5.211C125.157,20.505,126.141,20.505,126.936,19.853 M120.577,12.231h3.612
		c1.045,0,1.62,0.517,1.62,1.456c0,0.695-0.29,1.524-1.677,1.524h-3.556V12.231z M120.577,16.217h4.025
		c1.787,0,1.979,1.085,1.979,1.552c0,0.471-0.195,1.566-2.007,1.566h-3.998V16.217z"/>
	<polygon clip-path="url(#SVGID_2_)" fill="#231F20" points="173.054,20.504 173.054,11.062 171.772,11.062 171.772,14.84 
		166.305,14.84 166.305,11.062 165.024,11.062 165.024,20.504 166.305,20.504 166.305,16.01 171.772,16.01 171.772,20.504 	"/>
	<polygon clip-path="url(#SVGID_2_)" fill="#231F20" points="190.531,15.349 190.531,11.062 189.25,11.062 189.25,20.504 
		190.531,20.504 190.531,15.967 195.283,20.504 196.969,20.504 191.79,15.608 196.372,11.062 194.736,11.062 	"/>
	<path clip-path="url(#SVGID_2_)" fill="#231F20" d="M227.702,18.16l1.021,2.344h1.37l-4.419-9.849l-4.631,9.849h1.367l1.062-2.344
		H227.702z M225.622,13.377l1.593,3.614h-3.245L225.622,13.377z"/>
</g>
</svg>
